<svg width="100" height="100" viewBox="0 0 100 100" fill="none" xmlns="http://www.w3.org/2000/svg">
    <path
        d="M9.14502 55.3707C9.14502 44.2768 11.077 32.8888 16.7528 23.3773C20.5209 17.0602 29.189 11.3187 36.4412 10.284C43.6939 9.24716 50.9567 13.2549 55.6522 18.9099C60.3494 24.5653 62.9119 31.6728 65.1027 38.7026C65.985 41.5329 66.8775 44.4808 68.8725 46.6637C71.8477 49.9198 76.6363 50.7699 81.0288 50.601C83.134 50.518 85.383 50.2785 87.2175 51.3172C88.5616 52.076 89.4766 53.4259 90.1345 54.8252C94.0565 63.1486 86.9546 72.0744 79.7637 77.775C72.5688 83.4761 59.5394 88.3005 45.0063 88.3005C21.7318 88.3005 9.14502 77.5622 9.14502 55.3707"
        fill="#FFCC00" />
    <path
        d="M23.0638 50.3276C25.2232 48.4459 27.2275 47.1594 29.6983 45.7162C31.2404 44.8151 31.8004 45.4572 32.4848 45.9291C34.9908 47.6556 37.4549 49.6323 39.8842 51.7903C35.5684 54.3705 31.0093 57.3029 29.7001 57.1091C28.6342 56.949 25.2356 53.1154 23.0638 50.3276"
        fill="#EA5B0B" />
    <path
        d="M23.4413 34.6157C22.2009 33.9572 20.6186 33.8392 19.4461 34.6193C19.4196 34.637 19.4021 34.6636 19.3796 34.6769C18.7512 34.92 18.1841 35.3125 17.7626 35.8585C17.3269 36.4182 16.9785 37.0567 16.8788 37.7783C16.758 38.6444 16.8964 39.4419 17.2844 40.2357C17.855 41.3955 19.0348 42.2526 20.2527 42.587C21.7088 42.9866 23.1424 42.6181 24.2519 41.6752C25.2405 40.8322 25.8636 39.3908 25.7322 38.0563C25.5889 36.615 24.7417 35.3054 23.4413 34.6157"
        fill="white" />
    <path
        d="M46.2136 36.4572C46.0892 36.2833 45.9491 36.1282 45.8093 35.9788C45.8358 35.8501 44.3514 34.4158 42.5853 34.4158C40.9524 34.2996 39.3812 35.0899 38.464 36.4572C38.1575 36.9131 37.974 37.4573 37.9039 38.0205C37.8774 38.1966 37.8775 38.3741 37.882 38.5519C37.8837 38.6206 37.873 38.6893 37.8783 38.758C37.8916 38.9004 37.9243 39.0343 37.9521 39.1731C37.9741 39.2893 37.9829 39.4091 38.0151 39.5218C38.2933 40.4544 38.9848 41.2465 39.8178 41.7361C40.5529 42.1672 41.3911 42.3308 42.1906 42.2585C42.24 42.2763 42.2801 42.3065 42.3291 42.3238C44.3646 43.0227 46.4575 41.3946 46.8323 39.4322C47.0246 38.4183 46.8336 37.3269 46.2145 36.4572"
        fill="white" />
</svg>