<svg width="100" height="100" viewBox="0 0 100 100" fill="none" xmlns="http://www.w3.org/2000/svg">
<path d="M88.8156 16.9536C86.0415 11.2054 80.3031 8.52832 80.391 12.4605C80.491 16.8546 80.0282 25.7423 76.7839 31.6836C76.7249 30.8425 76.702 30.2055 76.6289 27.7904C76.5248 24.3022 73.7447 23.7411 72.8686 27.7904C71.8115 32.6797 66.4913 46.3685 54.1686 49.7587C50.7784 50.6918 48.0562 50.836 45.2488 48.7168C45.0578 48.5726 44.884 48.4267 44.7078 48.2816C39.6127 43.8555 41.3486 34.4099 41.3486 27.8353C41.3486 25.5753 40.1056 24.0102 38.0116 26.6452C37.1203 27.7683 36.6403 28.4444 36.1885 29.1545C35.4943 20.0379 33.0301 11.7605 30.858 7.57103C30.6899 7.24723 30.475 6.89113 30.1189 6.81604C29.8309 6.75506 29.5429 6.899 29.2869 7.04112C19.7833 12.3083 6.67962 27.3994 5.62255 45.7476C5.62255 45.7476 4.83233 43.4324 4.57153 41.4722C4.25252 39.0892 2.75118 38.3882 1.93526 41.4722C0.998131 45.0106 -2.16201 65.1627 9.39474 79.1955C20.4964 92.6744 32.9361 95.0906 44.9429 95.0906C63.377 95.0906 94.5709 79.8355 94.5709 45.1015C94.5709 34.0487 93.622 26.9072 88.8156 16.9536" fill="#EA5B0B"/>
<path d="M75.7182 70.459C71.282 75.9354 65.9017 79.8895 60.2363 82.8178C54.571 85.7459 45.2813 87.5319 38.9008 86.2339C35.8407 85.6118 33.4527 84.648 30.9256 82.6757C33.6306 82.6238 37.4068 82.4419 39.5389 81.8527C38.059 80.8687 36.0368 79.5226 35.4408 78.3945C41.0402 78.7705 47.6596 77.7154 51.6397 75.1103C49.0616 74.8483 45.4864 74.7133 42.2852 73.0431C53.5708 71.2661 59.9581 62.9224 62.0925 55.9541C62.3175 57.1823 62.6564 60.9544 62.4223 63.5715C66.8247 60.1803 70.1519 55.4801 71.879 52.1609C72.3119 57.7202 71.086 62.2934 71.086 62.2934C75.9513 59.6043 81.1016 53.281 83.7996 49.5617C83.2417 56.7821 80.1534 64.9826 75.7182 70.459" fill="#E30613"/>
<path d="M14.9381 46.2294C14.159 45.8184 13.1669 45.7454 12.4299 46.2319C12.4148 46.242 12.4039 46.2572 12.3888 46.268C11.996 46.4189 11.6389 46.6641 11.3748 47.004C11.1007 47.354 10.8817 47.7521 10.8197 48.2029C10.7449 48.7422 10.8298 49.2401 11.0757 49.7352C11.4318 50.4582 12.1729 50.9942 12.9369 51.2023C13.8511 51.4513 14.7509 51.2225 15.4451 50.6331C16.067 50.1072 16.4571 49.2081 16.3752 48.375C16.285 47.477 15.7541 46.6601 14.9381 46.2289" fill="#7F1F1B"/>
<path d="M32.4705 47.334C32.3934 47.2259 32.3054 47.1289 32.2162 47.0339C32.2364 46.9548 31.3023 46.0597 30.1953 46.0597C29.1702 45.9869 28.184 46.4798 27.6089 47.334C27.4169 47.618 27.302 47.958 27.2579 48.309C27.2403 48.4181 27.2428 48.529 27.2453 48.6411C27.2453 48.6829 27.2403 48.726 27.2433 48.7691C27.2483 48.857 27.2713 48.941 27.2892 49.0281C27.3043 49.101 27.3068 49.175 27.3282 49.2461C27.5023 49.8282 27.9373 50.322 28.4584 50.6262C28.9205 50.8961 29.4474 50.9981 29.9484 50.953C29.9783 50.9631 30.0035 50.9822 30.0345 50.9921C31.3126 51.4303 32.6247 50.4141 32.8595 49.1892C32.9807 48.5559 32.8615 47.8761 32.4717 47.334" fill="#7F1F1B"/>
<path d="M13.9604 61.1005C15.0825 59.6533 16.5035 58.3543 17.8266 57.0881C18.7618 56.2001 19.7137 55.3219 20.6788 54.4599C21.9078 55.269 23.1208 56.0991 24.313 56.955C26.0111 58.1792 27.7782 59.4343 29.3012 60.8714C24.254 61.5364 19.0677 61.6745 13.9604 61.1005" fill="#E30613"/>
<path d="M14.1353 63.4611C19.0387 63.9661 23.968 63.8761 28.8232 63.3021C26.5461 65.6211 24.092 67.7541 21.5258 69.8083C18.9556 67.8454 16.0514 65.9941 14.1353 63.4611" fill="#E30613"/>
<path d="M16.1489 37.1648C17.4061 34.1616 18.2122 31.3084 19.7604 28.4514C20.6083 31.2025 22.1704 33.1436 24.1285 34.8238C23.8914 23.7599 25.3355 19.6967 27.1647 13.3704C24.8086 16.2586 22.7383 19.1109 21.2554 23.4959C21.0614 21.762 21.1082 20.4768 21.1984 18.6706C20.3702 19.4636 19.3093 21.2789 18.9422 22.0429C16.5221 27.0882 15.9869 31.2855 16.1139 36.9589" fill="#E30613"/>
</svg>
