<svg width="100" height="100" viewBox="0 0 100 100" fill="none" xmlns="http://www.w3.org/2000/svg">
<path d="M24.7717 10.8936C29.9142 7.80914 30.9912 10.6908 32.2002 11.8507C35.7824 15.2884 43.734 17.1297 45.4591 30.9544C45.926 34.6992 45.8542 38.0554 49.5422 41.173C52.5635 43.7275 55.2406 44.4711 59.4268 44.4711C67.6425 44.4711 76.3511 40.1286 84.1964 30.0483C90.8399 21.5114 95.4391 25.7166 95.4391 37.5748C95.4391 51.7578 93.1181 63.9641 83.9245 74.3413C80.7843 77.8884 74.209 84.6001 62.8951 87.3804C57.8048 88.6307 43.315 89.598 34.5084 87.1939C16.9874 82.4117 5.43472 68.1061 5.43472 49.1721C5.43472 29.2367 12.362 18.3367 24.7717 10.8936" fill="#EA5B0B"/>
<path d="M81.3368 64.4165C77.1095 70.6756 72.1313 74.6973 65.005 77.6192C58.6925 80.2079 50.6728 81.6669 43.8496 80.2741C40.5784 79.6069 37.0932 78.5714 34.3899 76.4572C37.2831 76.4011 42.2533 76.2054 44.5325 75.5731C39.9522 73.7993 35.513 68.4169 34.8749 67.2069C58.2445 76.42 71.7423 61.335 78.7608 49.0935C78.5927 54.0373 78.4246 57.5622 78.4246 57.5622C84.9951 52.8976 88.5433 40.9309 88.5433 40.9309C87.9473 48.6761 86.8021 56.322 81.3368 64.4165" fill="#7F1F1B"/>
<path d="M16.5487 38.6344C15.7156 38.1937 14.6535 38.1146 13.8676 38.6369C13.8524 38.6471 13.8396 38.664 13.8225 38.6759C13.4024 38.8375 13.0224 39.0993 12.7384 39.4657C12.4464 39.8409 12.2123 40.2674 12.1452 40.751C12.0654 41.33 12.1553 41.8637 12.4184 42.3957C12.8004 43.1711 13.5924 43.745 14.4096 43.969C15.3866 44.2358 16.3486 43.9892 17.0917 43.359C17.7567 42.7949 18.1738 41.8306 18.0848 40.9366C17.9888 39.9714 17.4218 39.0953 16.5487 38.6339" fill="#7F1F1B"/>
<path d="M32.3905 39.8439C32.3076 39.7276 32.2136 39.6242 32.1196 39.5229C32.1372 39.4377 31.1414 38.4774 29.9563 38.4774C28.8612 38.4 27.8071 38.9289 27.192 39.8439C26.9872 40.1491 26.8632 40.5134 26.8171 40.8896C26.7994 41.0079 26.7995 41.1262 26.802 41.2458C26.803 41.2918 26.7969 41.3381 26.7999 41.3831C26.8075 41.4784 26.8289 41.569 26.8488 41.6622C26.864 41.7404 26.869 41.8198 26.8909 41.8951C27.0779 42.5201 27.542 43.05 28.0999 43.3769C28.5931 43.6659 29.157 43.7754 29.692 43.7271C29.724 43.7397 29.7522 43.7582 29.7849 43.7693C31.1512 44.239 32.5543 43.1481 32.8052 41.8347C32.9353 41.1566 32.8072 40.4259 32.3912 39.8439" fill="#7F1F1B"/>
<path d="M15.6393 50.3999C17.3674 49.4184 18.8785 48.4251 20.8327 46.8477C21.5468 46.2718 22.6989 46.4225 23.2888 46.8654C25.354 48.4175 26.6271 49.1171 28.7573 50.0733C29.3984 50.3612 29.3172 51.3546 28.7863 51.751C26.3791 53.5471 24.8248 55.2877 22.5789 56.9002C22.2629 57.128 21.4898 57.0658 21.2069 56.831C18.8047 54.8372 15.8815 51.9085 15.5814 51.6645C15.2815 51.4208 15.0884 50.7124 15.6393 50.3994" fill="#E30613"/>
</svg>
