<svg width="100" height="100" viewBox="0 0 100 100" fill="none" xmlns="http://www.w3.org/2000/svg">
<path d="M37.1043 10.1021C38.8219 9.63815 40.6771 9.82913 42.1877 10.7671C45.9652 13.1138 53.1729 14.6914 57.922 21.6584C62.0467 27.7068 62.8446 35.0823 62.8446 42.4021C62.8446 63.3599 73.7976 65.7638 79.2212 66.8923C83.9283 67.8713 91.8556 67.4123 97.4521 66.6023C101.803 68.7345 97.8722 96.116 51.6048 96.116C31.7501 96.116 6.95587 87.9365 6.95587 51.3916C6.95587 23.9095 29.5114 12.1472 37.1043 10.1017" fill="#FFCC00"/>
<path d="M42.3598 68.7538C42.3598 68.7538 43.1128 79.3524 55.015 82.1094C67.3302 84.9612 74.8951 77.699 74.8951 77.699C74.8951 77.699 73.2106 85.7342 60.8955 87.6804C48.5818 89.6235 39.5076 80.2907 42.3598 68.7538" fill="#EA5B0B"/>
<path d="M23.1097 53.7037C25.0391 52.0333 26.8274 50.8907 29.0337 49.6083C30.4116 48.8093 30.9126 49.3803 31.5232 49.7973C33.7619 51.3305 35.9615 53.0859 38.1314 55.0029C34.277 57.2945 30.2042 59.8987 29.0351 59.7252C28.0831 59.5832 25.0503 56.1801 23.1097 53.7036" fill="#EA5B0B"/>
<path d="M23.4465 39.7506C22.3377 39.1656 20.9234 39.0606 19.876 39.7535C19.856 39.7635 19.836 39.7935 19.816 39.8035C19.257 40.0195 18.7492 40.3665 18.3725 40.852C17.9845 41.35 17.6715 41.916 17.5825 42.5573C17.4745 43.3263 17.5925 44.0344 17.9455 44.7399C18.4545 45.769 19.5094 46.5306 20.597 46.8277C21.8977 47.1837 23.179 46.8577 24.1689 46.0187C25.0519 45.2697 25.6082 43.9899 25.4904 42.8056C25.3634 41.5243 24.6074 40.3609 23.445 39.7491" fill="#7F1F1B"/>
<path d="M43.7844 41.3858C43.6744 41.2318 43.5494 41.0948 43.4234 40.9608C43.4534 40.8468 42.1231 39.5733 40.5451 39.5733C39.0874 39.4693 37.6834 40.1713 36.8642 41.3863C36.5912 41.7913 36.4262 42.2753 36.3642 42.7737C36.3442 42.9317 36.3442 43.0887 36.3442 43.2477C36.3456 43.3077 36.3371 43.3697 36.3417 43.4297C36.3487 43.5557 36.3817 43.6757 36.4017 43.7987C36.4217 43.9027 36.4217 44.0087 36.4617 44.1087C36.7077 44.9377 37.3267 45.6415 38.0704 46.0744C38.7264 46.4574 39.4762 46.6034 40.1902 46.5394C40.2302 46.5594 40.2702 46.5794 40.3122 46.5994C42.1308 47.2224 44.0002 45.7764 44.336 44.0329C44.508 43.1309 44.3374 42.1625 43.783 41.391" fill="#7F1F1B"/>
</svg>
