<svg width="100" height="100" viewBox="0 0 100 100" fill="none" xmlns="http://www.w3.org/2000/svg">
<path d="M95.058 43.7563C94.9707 42.9451 93.9709 42.4674 93.3713 42.9962C92.0272 44.1838 90.6329 45.835 89.2361 47.7714C90.8972 38.997 90.875 26.6728 90.7927 24.039C90.6139 18.2163 89.8315 12.4052 88.5039 6.69286C88.0427 4.71295 87.3641 2.46452 85.5489 1.47715C85.2533 1.3157 84.9148 1.19285 84.5895 1.25303C83.8276 1.3931 83.653 2.35748 83.5517 3.12675C82.2513 12.9151 79.0336 26.541 72.4021 36.4669C72.893 32.8134 72.1773 29.9424 70.367 29.9424C69.0584 29.9424 68.0585 32.4724 67.4944 33.6856C63.631 42.0005 60.5482 46.8432 55.4141 51.6134C54.7463 52.2336 53.4466 53.4459 51.1801 53.4459C48.907 53.4459 47.2599 51.5276 46.8233 49.0866C46.4782 46.564 46.8629 43.73 47.2039 40.9051V40.9059C47.7441 36.658 48.445 33.343 47.8017 32.6372C47.2442 32.0236 46.5376 32.2576 45.6703 33.1989C44.86 34.0792 44.2447 34.894 43.2893 36.5566C42.9969 37.0656 42.5375 37.0945 42.5672 36.4644C43.0818 25.4327 42.9558 19.7673 42.5713 12.8136C42.5286 12.0329 41.6943 11.5133 40.9983 11.8443C36.1219 14.1676 31.6943 18.8876 28.9676 23.685C28.597 22.3284 28.213 19.7193 26.7999 20.1773C26.4375 20.295 26.136 20.5463 25.9038 20.8453C19.946 28.5251 16.4755 38.4205 15.7639 48.2499C14.2443 46.7072 13.027 44.2365 12.5839 44.2365C12.1409 44.2365 11.9828 44.7817 11.9465 45.0527C11.4071 48.567 11.4351 53.7053 11.9568 57.9023C11.2971 57.249 10.6277 56.6068 9.94082 55.9841C9.64345 55.7155 9.3 55.4281 8.8223 55.7197C8.47388 55.9322 8.31244 56.3563 8.36432 56.7691C9.0456 62.1404 9.63597 65.6026 11.1201 69.7733C16.5483 85.0212 28.267 92.1763 34.2717 94.6149C41.0886 97.3829 48.6771 97.7091 55.7787 96.3972C70.1412 93.746 83.3291 84.144 89.3256 71.2838C90.8542 68.0034 91.8516 64.5428 92.9757 61.0912C94.7456 55.6555 95.6128 48.9401 95.0569 43.7563" fill="#E30613"/>
<path d="M22.3352 53.3318C21.6402 52.9651 20.7555 52.9002 20.1 53.3339C20.0855 53.3422 20.0761 53.3562 20.0628 53.366C19.7121 53.5002 19.3951 53.7186 19.1587 54.0224C18.9157 54.3345 18.7196 54.6887 18.6644 55.0907C18.5969 55.5717 18.6748 56.0147 18.8918 56.4569C19.2106 57.1011 19.8711 57.5778 20.5513 57.7639C21.3658 57.9855 22.1679 57.7805 22.7873 57.2575C23.3416 56.7888 23.6892 55.9867 23.6159 55.2446C23.5352 54.4432 23.0625 53.7152 22.3352 53.3315" fill="white"/>
<path d="M37.9624 54.3158C37.8931 54.2193 37.8148 54.133 37.7358 54.049C37.7524 53.9782 36.9204 53.1801 35.9339 53.1801C35.0204 53.1158 34.1418 53.5557 33.6286 54.3158C33.458 54.5694 33.3543 54.8718 33.3157 55.1847C33.3011 55.2827 33.3032 55.3815 33.3032 55.4805C33.3032 55.5182 33.2991 55.5562 33.3011 55.5948C33.3074 55.6738 33.3258 55.7487 33.3424 55.8264C33.3549 55.8905 33.359 55.9573 33.3779 56.0198C33.5319 56.5386 33.9197 56.9793 34.385 57.2501C34.7961 57.4906 35.2655 57.5822 35.7127 57.5417C35.739 57.5521 35.7621 57.5673 35.7893 57.5772C36.9275 57.9667 38.0977 57.0609 38.3068 55.9695C38.4148 55.4053 38.3085 54.7985 37.962 54.3158" fill="white"/>
<path d="M24.0546 45.3497C25.1748 42.6729 25.8947 40.1298 27.274 37.5833C28.0294 40.0349 29.4229 41.7646 31.1672 43.2627C30.9564 33.4019 32.2428 29.7807 33.8735 24.1417C31.7734 26.7161 29.9278 29.2576 28.6067 33.1672C28.4336 31.6214 28.4749 30.4757 28.5557 28.8656C27.8169 29.573 26.8723 31.1906 26.5444 31.8717C24.3875 36.3686 23.9106 40.1093 24.0243 45.166" fill="#FFCC00"/>
<path d="M21.4642 66.5859C22.464 65.2961 23.7307 64.139 24.9108 63.0106C25.7426 62.2185 26.5925 61.4359 27.4525 60.6675C28.5478 61.3882 29.6291 62.1278 30.6908 62.8921C32.2044 63.9826 33.7799 65.1017 35.1372 66.3817C30.6389 66.9746 26.0161 67.098 21.4642 66.5859" fill="#FFCC00"/>
<path d="M21.6192 68.6903C25.991 69.1408 30.3839 69.0601 34.711 68.5477C32.6825 70.6158 30.4934 72.5167 28.2064 74.3474C25.9167 72.5982 23.3275 70.9476 21.6192 68.6903" fill="#FFCC00"/>
<path d="M77.7338 75.0251C73.7798 79.9057 68.9833 83.4305 63.9339 86.0404C58.8854 88.6504 50.6059 90.2424 44.9175 89.0853C42.1913 88.5302 40.0633 87.6711 37.809 85.9145C40.2206 85.8676 43.5873 85.7053 45.4873 85.1799C44.1671 84.3035 42.3659 83.1034 41.834 82.098C46.8256 82.4332 52.7249 81.4927 56.2722 79.1702C53.9735 78.9372 50.7871 78.8168 47.935 77.3287C57.9941 75.7441 63.6868 68.308 65.5893 62.0966C65.7894 63.191 66.0925 66.5528 65.8825 68.8861C69.8077 65.8636 72.7717 61.6741 74.3126 58.7157C74.6973 63.6712 73.6044 67.7471 73.6044 67.7471C77.9413 65.3505 82.5312 59.7139 84.9368 56.3998C84.4402 62.8345 81.687 70.1437 77.7338 75.0251" fill="#EA5B0B"/>
</svg>
